<?xml version="1.0" encoding="UTF-8" standalone="no"?>
<svg
   xmlns:dc="http://purl.org/dc/elements/1.1/"
   xmlns:cc="http://creativecommons.org/ns#"
   xmlns:rdf="http://www.w3.org/1999/02/22-rdf-syntax-ns#"
   xmlns:svg="http://www.w3.org/2000/svg"
   xmlns="http://www.w3.org/2000/svg"
   xmlns:sodipodi="http://sodipodi.sourceforge.net/DTD/sodipodi-0.dtd"
   xmlns:inkscape="http://www.inkscape.org/namespaces/inkscape"
   width="63.499989mm"
   height="63.499996mm"
   viewBox="0 0 63.499989 63.499996"
   version="1.1"
   id="svg2796"
   inkscape:version="1.0.1 (3bc2e813f5, 2020-09-07)"
   sodipodi:docname="BlueEightPointStar.svg">
  <defs
     id="defs2790" />
  <sodipodi:namedview
     id="base"
     pagecolor="#ffffff"
     bordercolor="#666666"
     borderopacity="1.0"
     inkscape:pageopacity="0.0"
     inkscape:pageshadow="2"
     inkscape:zoom="0.35"
     inkscape:cx="82.857109"
     inkscape:cy="-20.000009"
     inkscape:document-units="mm"
     inkscape:current-layer="layer1"
     inkscape:document-rotation="0"
     showgrid="false"
     inkscape:window-width="1540"
     inkscape:window-height="1040"
     inkscape:window-x="2076"
     inkscape:window-y="0"
     inkscape:window-maximized="0" />
  <metadata
     id="metadata2793">
    <rdf:RDF>
      <cc:Work
         rdf:about="">
        <dc:format>image/svg+xml</dc:format>
        <dc:type
           rdf:resource="http://purl.org/dc/dcmitype/StillImage" />
        <dc:title></dc:title>
      </cc:Work>
    </rdf:RDF>
  </metadata>
  <g
     inkscape:label="Calque 1"
     inkscape:groupmode="layer"
     id="layer1"
     transform="translate(-83.910723,-153.45834)">
    <g
       id="g714"
       transform="translate(214.12961,4.3650125)">
      <rect
         style="fill:#221e1e;fill-opacity:1;fill-rule:evenodd;stroke:#221e1e;stroke-width:3.41397;stroke-linecap:round;stroke-linejoin:round;stroke-miterlimit:4;stroke-dasharray:none;stroke-opacity:1"
         id="rect12-1-52-7-3-4-9"
         width="60.086018"
         height="60.086025"
         x="-128.5119"
         y="150.80031" />
      <path
         sodipodi:type="star"
         style="fill:#0094d4;fill-opacity:1;stroke-width:0.051969"
         id="path609"
         sodipodi:sides="8"
         sodipodi:cx="-98.468895"
         sodipodi:cy="180.84332"
         sodipodi:r1="26.458332"
         sodipodi:r2="14.699075"
         sodipodi:arg1="0.78539816"
         sodipodi:arg2="1.1780972"
         inkscape:flatsided="false"
         inkscape:rounded="0.068807008"
         inkscape:randomized="0"
         d="m -79.760029,199.55219 c -0.683736,0.68374 -12.190428,-5.49873 -13.083773,-5.12869 -0.893345,0.37003 -4.658144,12.87815 -5.625093,12.87815 -0.966949,0 -4.731745,-12.50812 -5.625095,-12.87815 -0.89334,-0.37004 -12.40003,5.81243 -13.08377,5.12869 -0.68374,-0.68374 5.49873,-12.19043 5.12869,-13.08377 -0.37003,-0.89335 -12.87816,-4.65815 -12.87816,-5.6251 0,-0.96695 12.50813,-4.73174 12.87816,-5.62509 0.37004,-0.89334 -5.81243,-12.40004 -5.12869,-13.08377 0.68374,-0.68374 12.19043,5.49872 13.08377,5.12869 0.89335,-0.37004 4.658146,-12.87816 5.625095,-12.87816 0.966949,0 4.731747,12.50812 5.625092,12.87816 0.893344,0.37003 12.400038,-5.81243 13.083774,-5.12869 0.683736,0.68373 -5.498727,12.19043 -5.128692,13.08377 0.370036,0.89334 12.878158,4.65814 12.878158,5.62509 0,0.96695 -12.508122,4.73175 -12.878157,5.62509 -0.370036,0.89335 5.812428,12.40004 5.128691,13.08378 z"
         inkscape:transform-center-x="3.6829935e-06"
         inkscape:transform-center-y="-8.119298e-06" />
    </g>
  </g>
</svg>
