<?xml version="1.0" encoding="UTF-8" standalone="no"?>
<svg
   xmlns:dc="http://purl.org/dc/elements/1.1/"
   xmlns:cc="http://creativecommons.org/ns#"
   xmlns:rdf="http://www.w3.org/1999/02/22-rdf-syntax-ns#"
   xmlns:svg="http://www.w3.org/2000/svg"
   xmlns="http://www.w3.org/2000/svg"
   xmlns:sodipodi="http://sodipodi.sourceforge.net/DTD/sodipodi-0.dtd"
   xmlns:inkscape="http://www.inkscape.org/namespaces/inkscape"
   width="63.499989mm"
   height="63.499996mm"
   viewBox="0 0 63.499989 63.499996"
   version="1.1"
   id="svg2804"
   inkscape:version="1.0.1 (3bc2e813f5, 2020-09-07)"
   sodipodi:docname="GreenEightPointStar.svg">
  <defs
     id="defs2798" />
  <sodipodi:namedview
     id="base"
     pagecolor="#ffffff"
     bordercolor="#666666"
     borderopacity="1.0"
     inkscape:pageopacity="0.0"
     inkscape:pageshadow="2"
     inkscape:zoom="0.35"
     inkscape:cx="-205.71432"
     inkscape:cy="282.85713"
     inkscape:document-units="mm"
     inkscape:current-layer="layer1"
     inkscape:document-rotation="0"
     showgrid="false"
     inkscape:window-width="1540"
     inkscape:window-height="1040"
     inkscape:window-x="2102"
     inkscape:window-y="0"
     inkscape:window-maximized="0" />
  <metadata
     id="metadata2801">
    <rdf:RDF>
      <cc:Work
         rdf:about="">
        <dc:format>image/svg+xml</dc:format>
        <dc:type
           rdf:resource="http://purl.org/dc/dcmitype/StillImage" />
        <dc:title></dc:title>
      </cc:Work>
    </rdf:RDF>
  </metadata>
  <g
     inkscape:label="Calque 1"
     inkscape:groupmode="layer"
     id="layer1"
     transform="translate(-160.26191,-73.327383)">
    <g
       id="g710"
       transform="translate(290.4808,-1.6826116)">
      <rect
         style="fill:#221e1e;fill-opacity:1;fill-rule:evenodd;stroke:#221e1e;stroke-width:3.41397;stroke-linecap:round;stroke-linejoin:round;stroke-miterlimit:4;stroke-dasharray:none;stroke-opacity:1"
         id="rect12-1-52-7-3-4-9-0"
         width="60.086018"
         height="60.086025"
         x="-128.5119"
         y="76.71698" />
      <path
         sodipodi:type="star"
         style="fill:#02a458;fill-opacity:1;stroke-width:0.0519689"
         id="path609-9"
         sodipodi:sides="8"
         sodipodi:cx="-98.468918"
         sodipodi:cy="106.75999"
         sodipodi:r1="26.45833"
         sodipodi:r2="14.699075"
         sodipodi:arg1="0.78539816"
         sodipodi:arg2="1.1780972"
         inkscape:flatsided="false"
         inkscape:rounded="0.068807008"
         inkscape:randomized="0"
         d="m -79.760053,125.46885 c -0.683736,0.68374 -12.190427,-5.49872 -13.083772,-5.12869 -0.893344,0.37004 -4.658144,12.87816 -5.625093,12.87816 -0.966949,0 -4.731752,-12.50812 -5.625092,-12.87816 -0.89334,-0.37003 -12.40004,5.81243 -13.08377,5.12869 -0.68374,-0.68373 5.49872,-12.19043 5.12869,-13.08377 -0.37004,-0.89334 -12.87816,-4.65814 -12.87816,-5.62509 0,-0.96695 12.50812,-4.73175 12.87816,-5.62509 0.37003,-0.89335 -5.81243,-12.400041 -5.12869,-13.083778 0.68373,-0.683736 12.19042,5.498726 13.08377,5.128691 0.89334,-0.370036 4.658143,-12.878156 5.625092,-12.878156 0.966949,0 4.731747,12.50812 5.625092,12.878155 0.893344,0.370036 12.400036,-5.812426 13.083773,-5.12869 0.683736,0.683736 -5.498726,12.190428 -5.128691,13.083768 0.370036,0.89335 12.878156,4.65815 12.878156,5.6251 0,0.96695 -12.50812,4.73174 -12.878155,5.62509 -0.370036,0.89334 5.812426,12.40004 5.12869,13.08377 z"
         inkscape:transform-center-x="3.6829935e-06"
         inkscape:transform-center-y="-8.119298e-06" />
    </g>
  </g>
</svg>
