<?xml version="1.0" encoding="UTF-8" standalone="no"?>
<svg
   xmlns:dc="http://purl.org/dc/elements/1.1/"
   xmlns:cc="http://creativecommons.org/ns#"
   xmlns:rdf="http://www.w3.org/1999/02/22-rdf-syntax-ns#"
   xmlns:svg="http://www.w3.org/2000/svg"
   xmlns="http://www.w3.org/2000/svg"
   xmlns:sodipodi="http://sodipodi.sourceforge.net/DTD/sodipodi-0.dtd"
   xmlns:inkscape="http://www.inkscape.org/namespaces/inkscape"
   width="63.499989mm"
   height="63.499996mm"
   viewBox="0 0 63.499989 63.499996"
   version="1.1"
   id="svg2828"
   inkscape:version="1.0.1 (3bc2e813f5, 2020-09-07)"
   sodipodi:docname="RedEightPointStar.svg">
  <defs
     id="defs2822" />
  <sodipodi:namedview
     id="base"
     pagecolor="#ffffff"
     bordercolor="#666666"
     borderopacity="1.0"
     inkscape:pageopacity="0.0"
     inkscape:pageshadow="2"
     inkscape:zoom="0.35"
     inkscape:cx="59.999963"
     inkscape:cy="394.28569"
     inkscape:document-units="mm"
     inkscape:current-layer="layer1"
     inkscape:document-rotation="0"
     showgrid="false"
     inkscape:window-width="1540"
     inkscape:window-height="1040"
     inkscape:window-x="1946"
     inkscape:window-y="0"
     inkscape:window-maximized="0" />
  <metadata
     id="metadata2825">
    <rdf:RDF>
      <cc:Work
         rdf:about="">
        <dc:format>image/svg+xml</dc:format>
        <dc:type
           rdf:resource="http://purl.org/dc/dcmitype/StillImage" />
        <dc:title></dc:title>
      </cc:Work>
    </rdf:RDF>
  </metadata>
  <g
     inkscape:label="Calque 1"
     inkscape:groupmode="layer"
     id="layer1"
     transform="translate(-89.958343,-43.845245)">
    <g
       id="g698"
       transform="translate(220.17723,191.08525)">
      <rect
         style="fill:#221e1e;fill-opacity:1;fill-rule:evenodd;stroke:#221e1e;stroke-width:3.41397;stroke-linecap:round;stroke-linejoin:round;stroke-miterlimit:4;stroke-dasharray:none;stroke-opacity:1"
         id="rect12-1-52-7-3-4-9-0-8"
         width="60.086018"
         height="60.086025"
         x="-128.5119"
         y="-145.53302" />
      <path
         sodipodi:type="star"
         style="fill:#c73039;fill-opacity:1;stroke-width:0.0519689"
         id="path609-9-4"
         sodipodi:sides="8"
         sodipodi:cx="-98.468933"
         sodipodi:cy="-115.49002"
         sodipodi:r1="26.45833"
         sodipodi:r2="14.699075"
         sodipodi:arg1="0.78539816"
         sodipodi:arg2="1.1780972"
         inkscape:flatsided="false"
         inkscape:rounded="0.068807008"
         inkscape:randomized="0"
         d="m -79.760068,-96.781156 c -0.683737,0.683736 -12.190428,-5.498724 -13.083772,-5.128694 -0.893345,0.37004 -4.658144,12.878159 -5.625093,12.878159 -0.966949,0 -4.731747,-12.508119 -5.625087,-12.878159 -0.89335,-0.37003 -12.40004,5.81243 -13.08378,5.128694 -0.68373,-0.683736 5.49873,-12.190424 5.12869,-13.083774 -0.37003,-0.89334 -12.87815,-4.65814 -12.87815,-5.62509 0,-0.96695 12.50812,-4.73175 12.87815,-5.62509 0.37004,-0.89335 -5.81242,-12.40004 -5.12869,-13.08378 0.68374,-0.68373 12.19043,5.49873 13.08377,5.1287 0.89335,-0.37004 4.658148,-12.87816 5.625097,-12.87816 0.966949,0 4.731747,12.50812 5.625092,12.87815 0.893344,0.37004 12.400036,-5.81242 13.083773,-5.12869 0.683736,0.68374 -5.498726,12.19043 -5.128691,13.08378 0.370035,0.89334 12.878156,4.65814 12.878156,5.62509 0,0.96695 -12.50812,4.73175 -12.878156,5.62509 -0.370035,0.89335 5.812427,12.400037 5.128691,13.083774 z"
         inkscape:transform-center-x="3.6829935e-06"
         inkscape:transform-center-y="-8.119298e-06" />
    </g>
  </g>
</svg>
