<?xml version="1.0" encoding="UTF-8" standalone="no"?>
<svg
   xmlns:dc="http://purl.org/dc/elements/1.1/"
   xmlns:cc="http://creativecommons.org/ns#"
   xmlns:rdf="http://www.w3.org/1999/02/22-rdf-syntax-ns#"
   xmlns:svg="http://www.w3.org/2000/svg"
   xmlns="http://www.w3.org/2000/svg"
   xmlns:sodipodi="http://sodipodi.sourceforge.net/DTD/sodipodi-0.dtd"
   xmlns:inkscape="http://www.inkscape.org/namespaces/inkscape"
   width="63.499989mm"
   height="63.499996mm"
   viewBox="0 0 63.499989 63.499996"
   version="1.1"
   id="svg2812"
   inkscape:version="1.0.1 (3bc2e813f5, 2020-09-07)"
   sodipodi:docname="YellowEightPointStar.svg">
  <defs
     id="defs2806" />
  <sodipodi:namedview
     id="base"
     pagecolor="#ffffff"
     bordercolor="#666666"
     borderopacity="1.0"
     inkscape:pageopacity="0.0"
     inkscape:pageshadow="2"
     inkscape:zoom="0.35"
     inkscape:cx="-91.428585"
     inkscape:cy="274.28571"
     inkscape:document-units="mm"
     inkscape:current-layer="layer1"
     inkscape:document-rotation="0"
     showgrid="false"
     inkscape:window-width="1540"
     inkscape:window-height="1040"
     inkscape:window-x="2128"
     inkscape:window-y="0"
     inkscape:window-maximized="0" />
  <metadata
     id="metadata2809">
    <rdf:RDF>
      <cc:Work
         rdf:about="">
        <dc:format>image/svg+xml</dc:format>
        <dc:type
           rdf:resource="http://purl.org/dc/dcmitype/StillImage" />
        <dc:title></dc:title>
      </cc:Work>
    </rdf:RDF>
  </metadata>
  <g
     inkscape:label="Calque 1"
     inkscape:groupmode="layer"
     id="layer1"
     transform="translate(-130.02381,-75.59524)">
    <g
       id="g706"
       transform="translate(260.2427,74.668582)">
      <rect
         style="fill:#221e1e;fill-opacity:1;fill-rule:evenodd;stroke:#221e1e;stroke-width:3.41397;stroke-linecap:round;stroke-linejoin:round;stroke-miterlimit:4;stroke-dasharray:none;stroke-opacity:1"
         id="rect12-1-52-7-3-4-9-0-6"
         width="60.086018"
         height="60.086025"
         x="-128.5119"
         y="2.6336434" />
      <path
         sodipodi:type="star"
         style="fill:#ffec1b;fill-opacity:1;stroke-width:0.0519689"
         id="path609-9-3"
         sodipodi:sides="8"
         sodipodi:cx="-98.468925"
         sodipodi:cy="32.676643"
         sodipodi:r1="26.45833"
         sodipodi:r2="14.699075"
         sodipodi:arg1="0.78539816"
         sodipodi:arg2="1.1780972"
         inkscape:flatsided="false"
         inkscape:rounded="0.068807008"
         inkscape:randomized="0"
         d="m -79.760061,51.385508 c -0.683736,0.683736 -12.190427,-5.498726 -13.083771,-5.128691 -0.893345,0.370036 -4.658144,12.878156 -5.625093,12.878157 -0.96695,0 -4.731745,-12.508121 -5.625095,-12.878156 -0.89334,-0.370036 -12.40003,5.812426 -13.08377,5.12869 -0.68374,-0.683736 5.49873,-12.190427 5.12869,-13.083772 -0.37003,-0.893344 -12.87816,-4.658143 -12.87816,-5.625093 0,-0.966949 12.50812,-4.731747 12.87816,-5.625091 0.37004,-0.893345 -5.81243,-12.400037 -5.12869,-13.083773 0.68374,-0.683737 12.19043,5.498726 13.08377,5.12869 0.89335,-0.370035 4.658145,-12.8781557 5.625094,-12.8781558 0.96695,0 4.731748,12.5081198 5.625092,12.8781558 0.893345,0.370035 12.400037,-5.812427 13.083773,-5.12869 0.683736,0.683736 -5.498726,12.190427 -5.12869,13.083771 0.370035,0.893345 12.878156,4.658144 12.878156,5.625093 0,0.966949 -12.508121,4.731748 -12.878156,5.625092 -0.370035,0.893345 5.812427,12.400037 5.12869,13.083773 z"
         inkscape:transform-center-x="3.6829935e-06"
         inkscape:transform-center-y="-8.119298e-06" />
    </g>
  </g>
</svg>
